<svg width="49" height="48" viewBox="0 0 49 48" fill="none" xmlns="http://www.w3.org/2000/svg">
<g clip-path="url(#clip0_188_5685)">
<path d="M38.6191 24.4077H36.4761C35.4274 24.4077 34.5772 23.5575 34.5772 22.5088C34.5772 21.46 35.4275 20.6099 36.4761 20.6099H38.6191C39.6679 20.6099 40.518 21.4601 40.518 22.5088C40.518 23.5575 39.6679 24.4077 38.6191 24.4077Z" fill="#FFAF40"/>
<path d="M39.33 27.7458H43.1164C45.4171 27.7458 47.2821 30.2924 47.2821 33.4337C47.2821 36.5749 45.4171 39.1215 43.1164 39.1215H39.4632L39.33 27.7458Z" fill="#44433F"/>
<path d="M39.4632 39.1215C41.7639 39.1215 43.629 36.575 43.629 33.4337C43.629 30.2924 41.7639 27.7458 39.4632 27.7458C37.1625 27.7458 35.2974 30.2924 35.2974 33.4337C35.2974 36.575 37.1625 39.1215 39.4632 39.1215Z" fill="#595751"/>
<path d="M19.683 27.7458H23.4694C25.7701 27.7458 27.6351 30.2924 27.6351 33.4337C27.6351 36.5749 25.7701 39.1215 23.4694 39.1215H19.8162L19.683 27.7458Z" fill="#44433F"/>
<path d="M38.7294 22.4388L34.1224 16.6457C33.37 15.6996 32.4138 14.9355 31.3251 14.4103C30.2363 13.8851 29.0431 13.6123 27.8344 13.6123H12.9836C11.9676 13.6123 11.144 14.4359 11.144 15.4519V34.0843C11.144 35.1003 11.9676 35.9239 12.9836 35.9239H47.2867C48.0487 35.9239 48.6664 35.3061 48.6664 34.5442V30.9498C48.6664 28.3062 47.1156 25.9085 44.7048 24.8241L38.7294 22.4388Z" fill="#FFC751"/>
<path d="M48.6667 30.9498V34.5448C48.6667 35.3059 48.0483 35.9242 47.2872 35.9242H32.8308C38.1675 34.0898 42.4398 29.9701 44.48 24.7349L44.7045 24.8245C47.1158 25.9084 48.6667 28.3061 48.6667 30.9498Z" fill="#FFAF40"/>
<path d="M28.7597 27.2126H45.8663V30.7001H28.7597V27.2126Z" fill="#595751"/>
<path d="M45.8663 27.2122V30.6998H37.8238C39.2239 30.0656 40.2598 28.7708 40.5355 27.2122H45.8663Z" fill="#44433F"/>
<path d="M22.8615 23.0723L19.0259 16.9855C18.6399 16.3731 19.0801 15.5754 19.804 15.5754H32.3837C32.6604 15.5754 32.9336 15.6379 33.1829 15.7581C33.4322 15.8784 33.6511 16.0533 33.8234 16.2699L38.7293 22.4388C39.2086 23.0414 38.7795 23.9311 38.0094 23.9311H24.4178C24.107 23.931 23.8012 23.8522 23.5291 23.7021C23.2569 23.5519 23.0272 23.3352 22.8615 23.0723Z" fill="#B6F0FF"/>
<path d="M27.9573 15.5757H21.5264C20.6203 15.5757 19.8858 16.3102 19.8858 17.2163C19.8858 18.1224 20.6203 18.8569 21.5264 18.8569H27.9573C28.8634 18.8569 29.5979 18.1224 29.5979 17.2163C29.5979 16.3102 28.8634 15.5757 27.9573 15.5757Z" fill="#DCFEFF"/>
<path d="M25.8369 15.5757H25.4546C24.5485 15.5757 23.814 16.3102 23.814 17.2163C23.814 18.1224 24.5485 18.8569 25.4546 18.8569H25.8369C26.743 18.8569 27.4776 18.1224 27.4776 17.2163C27.4776 16.3102 26.743 15.5757 25.8369 15.5757Z" fill="white"/>
<path d="M38.01 23.9313H32.2351C33.0523 22.8522 33.5368 21.5082 33.5368 20.0499C33.5368 18.311 32.8476 16.7337 31.728 15.5757H32.3838C32.944 15.5757 33.4747 15.8307 33.8233 16.2698L38.7297 22.4386C39.2082 23.0413 38.78 23.9313 38.01 23.9313Z" fill="#73E1FF"/>
<path d="M19.3719 23.226L14.6861 15.7901C14.6447 15.7244 14.5873 15.6702 14.5192 15.6327C14.4512 15.5951 14.3747 15.5754 14.297 15.5754H12.1286V23.9311H18.9828C19.3448 23.931 19.5649 23.5322 19.3719 23.226Z" fill="#A0DAF2"/>
<path d="M19.8162 39.1215C22.1169 39.1215 23.982 36.575 23.982 33.4337C23.982 30.2924 22.1169 27.7458 19.8162 27.7458C17.5155 27.7458 15.6504 30.2924 15.6504 33.4337C15.6504 36.575 17.5155 39.1215 19.8162 39.1215Z" fill="#595751"/>
<path d="M19.8162 36.078C20.8858 36.078 21.7529 34.8941 21.7529 33.4338C21.7529 31.9734 20.8858 30.7896 19.8162 30.7896C18.7466 30.7896 17.8795 31.9734 17.8795 33.4338C17.8795 34.8941 18.7466 36.078 19.8162 36.078Z" fill="#E8E4D8"/>
<path d="M18.5743 24.4077H16.4314C15.3826 24.4077 14.5325 23.5575 14.5325 22.5088C14.5325 21.46 15.3827 20.6099 16.4314 20.6099H18.5743C19.6231 20.6099 20.4732 21.4601 20.4732 22.5088C20.4732 23.5575 19.6231 24.4077 18.5743 24.4077Z" fill="#FFAF40"/>
<path d="M32.5539 28.8836L31.7342 27.8639C31.5708 27.6606 31.3638 27.4966 31.1286 27.3839C30.8934 27.2712 30.6359 27.2127 30.3751 27.2126H27.2241C26.2611 27.2126 25.4803 27.9933 25.4803 28.9564C25.4803 29.9194 26.261 30.7001 27.2241 30.7001H31.6834C32.6211 30.7001 33.1414 29.6144 32.5539 28.8836ZM42.5303 28.8836L43.35 27.8639C43.5134 27.6606 43.7203 27.4966 43.9556 27.3839C44.1908 27.2712 44.4483 27.2126 44.7091 27.2126H46.9226C47.8856 27.2126 48.6664 27.9933 48.6664 28.9564C48.6664 29.9194 47.8857 30.7001 46.9226 30.7001H43.4008C42.4631 30.7001 41.9428 29.6144 42.5303 28.8836Z" fill="#FFF7C7"/>
<path d="M44.2258 35.9239H31.7463L32.2978 34.0052C32.404 33.6359 32.6274 33.3112 32.9343 33.08C33.2412 32.8489 33.615 32.7239 33.9993 32.7239H41.9729C42.7623 32.7239 43.4563 33.2465 43.6744 34.0052L44.2258 35.9239Z" fill="#E8E4D8"/>
<path d="M46.6125 34.7192C47.1964 34.7192 47.6698 34.1631 47.6698 33.4771C47.6698 32.791 47.1964 32.2349 46.6125 32.2349C46.0285 32.2349 45.5552 32.791 45.5552 33.4771C45.5552 34.1631 46.0285 34.7192 46.6125 34.7192Z" fill="#FFF7C7"/>
<path d="M29.0984 34.7192C29.7555 34.7192 30.2882 34.1631 30.2882 33.4771C30.2882 32.791 29.7555 32.2349 29.0984 32.2349C28.4413 32.2349 27.9086 32.791 27.9086 33.4771C27.9086 34.1631 28.4413 34.7192 29.0984 34.7192Z" fill="#FFF7C7"/>
<path d="M35.9599 27.2126H24.9201C24.014 27.2126 23.2795 26.4781 23.2795 25.572C23.2795 24.6659 24.014 23.9314 24.9201 23.9314H35.9599C36.8659 23.9314 37.6005 24.6659 37.6005 25.572C37.6005 26.4781 36.8659 27.2126 35.9599 27.2126Z" fill="#FFE059"/>
<path d="M29.6908 23.9314H27.6907C26.7846 23.9314 26.0501 24.6659 26.0501 25.572C26.0501 26.4781 26.7846 27.2126 27.6907 27.2126H29.6908C30.5969 27.2126 31.3314 26.4781 31.3314 25.572C31.3315 24.6659 30.597 23.9314 29.6908 23.9314Z" fill="#FFF370"/>
<path d="M44.226 35.9242H39.0616C40.0669 35.1247 40.8093 34.0071 41.1372 32.7241H41.9732C42.3574 32.7242 42.7311 32.8491 43.038 33.0802C43.345 33.3113 43.5684 33.6359 43.6746 34.0051L44.226 35.9242Z" fill="#D8D4C9"/>
<path d="M22.8225 19.9563C22.8225 13.8462 17.8757 8.89129 11.7685 8.87844C5.69258 8.86551 0.648176 13.9148 0.666738 19.9908C0.677144 23.407 2.23386 26.4592 4.67361 28.4844C7.80664 31.085 10.0067 34.6364 11.0374 38.5755C11.2279 39.3035 12.2613 39.3035 12.4518 38.5755L12.471 38.502C13.4932 34.5953 15.6788 31.074 18.7929 28.503C21.254 26.4712 22.8225 23.3969 22.8225 19.9563Z" fill="#FE255F"/>
<path d="M22.8223 19.9561C22.8223 23.3968 21.2541 26.4714 18.7932 28.5033C15.6791 31.0739 13.493 34.5951 12.4711 38.5018L12.4516 38.5757C12.3565 38.9396 12.0505 39.1215 11.7445 39.1215C11.4385 39.1215 11.1326 38.9396 11.0375 38.5757C10.1899 35.3358 8.55131 32.3588 6.25293 29.957C7.15025 30.1595 8.06735 30.2614 8.98724 30.2607C15.8162 30.2607 21.3521 24.7247 21.3521 17.8958C21.3521 16.135 20.9841 14.4597 20.3202 12.9429C21.8837 14.8531 22.8223 17.295 22.8223 19.9561Z" fill="#E01152"/>
<path d="M11.7446 27.2458C15.8176 27.2458 19.1195 23.944 19.1195 19.8709C19.1195 15.7979 15.8176 12.4961 11.7446 12.4961C7.67161 12.4961 4.36978 15.7979 4.36978 19.8709C4.36978 23.944 7.67161 27.2458 11.7446 27.2458Z" fill="#F9F8F2"/>
<path d="M19.1192 19.871C19.1192 23.8455 15.9746 27.0863 12.0374 27.2397C14.8092 25.6049 16.669 22.5882 16.669 19.1371C16.669 16.7805 15.8016 14.6263 14.3687 12.9768C17.1458 14.0351 19.1192 16.7223 19.1192 19.871Z" fill="#F1EEE0"/>
<path d="M0.666739 19.9906C0.667771 20.3226 0.683521 20.6511 0.713333 20.9755C0.822458 22.165 2.02377 22.9259 3.15046 22.5291L3.18571 22.5167C3.98839 22.2346 4.48986 21.4436 4.40596 20.5968C4.38201 20.3555 4.37003 20.1131 4.37005 19.8705C4.37005 16.3241 6.87402 13.3635 10.211 12.658C11.0544 12.4796 11.6654 11.7476 11.6654 10.8854C11.6654 9.74338 10.6173 8.87722 9.49996 9.11319C4.48668 10.1721 0.650333 14.6904 0.666739 19.9906Z" fill="#FC709B"/>
<path d="M6.99824 14.2309C7.37202 13.9159 7.77613 13.6388 8.20461 13.4036C8.92808 13.0067 9.2863 12.1669 9.06946 11.3706C8.75811 10.227 7.4564 9.69218 6.42149 10.2698C5.81604 10.6079 5.24314 11.0013 4.71008 11.4449C3.79311 12.2076 3.84224 13.63 4.81433 14.321C5.13684 14.5502 5.52637 14.6657 5.92169 14.6494C6.31701 14.6331 6.6957 14.4859 6.99824 14.2309Z" fill="#F7A6C1"/>
<path d="M8.78362 13.1163C7.0169 13.8914 5.613 15.3391 4.89515 17.1355C4.4039 18.3651 5.3205 19.7013 6.64462 19.7013C7.40428 19.7013 8.10046 19.2485 8.37993 18.5421C8.73336 17.6513 9.42424 16.9361 10.3023 16.5521C11.0782 16.2138 11.5615 15.4145 11.4377 14.5499C11.2471 13.2185 10.0153 12.5759 8.78362 13.1163Z" fill="white"/>
</g>
<defs>
<clipPath id="clip0_188_5685">
<rect width="48" height="48" fill="white" transform="translate(0.666656)"/>
</clipPath>
</defs>
</svg>
