<svg width="24" height="24" viewBox="0 0 24 24" fill="none" xmlns="http://www.w3.org/2000/svg">
<g clip-path="url(#clip0_24_3362)">
<path d="M9.00001 9.99988C8.73479 9.99988 8.48044 10.1052 8.2929 10.2928C8.10536 10.4803 8.00001 10.7347 8.00001 10.9999V14.9999H10V11.9999H13V14.4999L16.5 10.9999L13 7.49988V9.99988H9.00001ZM12.707 1.39288L22.607 11.2929C22.7945 11.4804 22.8998 11.7347 22.8998 11.9999C22.8998 12.265 22.7945 12.5194 22.607 12.7069L12.707 22.6069C12.5195 22.7944 12.2652 22.8997 12 22.8997C11.7348 22.8997 11.4805 22.7944 11.293 22.6069L1.39301 12.7069C1.20554 12.5194 1.10022 12.265 1.10022 11.9999C1.10022 11.7347 1.20554 11.4804 1.39301 11.2929L11.293 1.39288C11.4805 1.20541 11.7348 1.1001 12 1.1001C12.2652 1.1001 12.5195 1.20541 12.707 1.39288Z" fill="#FCA431"/>
</g>
<defs>
<clipPath id="clip0_24_3362">
<rect width="24" height="24" fill="white"/>
</clipPath>
</defs>
</svg>
