<svg width="49" height="48" viewBox="0 0 49 48" fill="none" xmlns="http://www.w3.org/2000/svg">
<g clip-path="url(#clip0_188_5771)">
<path d="M38.2858 24.4077H36.1429C35.0941 24.4077 34.2439 23.5575 34.2439 22.5088C34.2439 21.46 35.0942 20.6099 36.1429 20.6099H38.2858C39.3346 20.6099 40.1847 21.4601 40.1847 22.5088C40.1847 23.5575 39.3346 24.4077 38.2858 24.4077Z" fill="#FFAF40"/>
<path d="M38.9967 27.7458H42.7831C45.0838 27.7458 46.9488 30.2924 46.9488 33.4337C46.9488 36.5749 45.0838 39.1215 42.7831 39.1215H39.1299L38.9967 27.7458Z" fill="#44433F"/>
<path d="M39.1299 39.1215C41.4306 39.1215 43.2957 36.575 43.2957 33.4337C43.2957 30.2924 41.4306 27.7458 39.1299 27.7458C36.8292 27.7458 34.9641 30.2924 34.9641 33.4337C34.9641 36.575 36.8292 39.1215 39.1299 39.1215Z" fill="#595751"/>
<path d="M19.3497 27.7458H23.1361C25.4368 27.7458 27.3019 30.2924 27.3019 33.4337C27.3019 36.5749 25.4368 39.1215 23.1361 39.1215H19.4829L19.3497 27.7458Z" fill="#44433F"/>
<path d="M38.3961 22.4388L33.7891 16.6457C33.0367 15.6996 32.0805 14.9355 30.9918 14.4103C29.9031 13.8851 28.7099 13.6123 27.5011 13.6123H12.6503C11.6344 13.6123 10.8108 14.4359 10.8108 15.4519V34.0843C10.8108 35.1003 11.6344 35.9239 12.6503 35.9239H46.9535C47.7155 35.9239 48.3331 35.3061 48.3331 34.5442V30.9498C48.3331 28.3062 46.7824 25.9085 44.3715 24.8241L38.3961 22.4388Z" fill="#FFC751"/>
<path d="M48.3334 30.9498V34.5448C48.3334 35.3059 47.715 35.9242 46.9539 35.9242H32.4975C37.8342 34.0898 42.1065 29.9701 44.1467 24.7349L44.3712 24.8245C46.7825 25.9084 48.3334 28.3061 48.3334 30.9498Z" fill="#FFAF40"/>
<path d="M28.4264 27.2124H45.533V30.6999H28.4264V27.2124Z" fill="#595751"/>
<path d="M45.533 27.2122V30.6998H37.4905C38.8907 30.0656 39.9265 28.7708 40.2022 27.2122H45.533Z" fill="#44433F"/>
<path d="M22.5282 23.0723L18.6926 16.9855C18.3066 16.3731 18.7468 15.5754 19.4707 15.5754H32.0504C32.3271 15.5754 32.6003 15.6379 32.8496 15.7581C33.0989 15.8784 33.3178 16.0533 33.4901 16.2699L38.396 22.4388C38.8753 23.0414 38.4462 23.9311 37.6761 23.9311H24.0845C23.7737 23.931 23.4679 23.8522 23.1958 23.7021C22.9236 23.5519 22.694 23.3352 22.5282 23.0723Z" fill="#B6F0FF"/>
<path d="M27.624 15.5757H21.1931C20.287 15.5757 19.5525 16.3102 19.5525 17.2163C19.5525 18.1224 20.287 18.8569 21.1931 18.8569H27.624C28.5301 18.8569 29.2646 18.1224 29.2646 17.2163C29.2646 16.3102 28.5301 15.5757 27.624 15.5757Z" fill="#DCFEFF"/>
<path d="M25.5036 15.5757H25.1213C24.2152 15.5757 23.4807 16.3102 23.4807 17.2163C23.4807 18.1224 24.2152 18.8569 25.1213 18.8569H25.5036C26.4097 18.8569 27.1443 18.1224 27.1443 17.2163C27.1443 16.3102 26.4097 15.5757 25.5036 15.5757Z" fill="white"/>
<path d="M37.6767 23.9313H31.9018C32.719 22.8522 33.2035 21.5082 33.2035 20.0499C33.2035 18.311 32.5143 16.7337 31.3947 15.5757H32.0505C32.6107 15.5757 33.1414 15.8307 33.49 16.2698L38.3964 22.4386C38.8749 23.0413 38.4467 23.9313 37.6767 23.9313Z" fill="#73E1FF"/>
<path d="M19.0386 23.226L14.3528 15.7901C14.3114 15.7244 14.254 15.6702 14.1859 15.6327C14.1179 15.5951 14.0415 15.5754 13.9638 15.5754H11.7953V23.9311H18.6495C19.0115 23.931 19.2317 23.5322 19.0386 23.226Z" fill="#A0DAF2"/>
<path d="M19.4829 39.1215C21.7836 39.1215 23.6487 36.575 23.6487 33.4337C23.6487 30.2924 21.7836 27.7458 19.4829 27.7458C17.1822 27.7458 15.3171 30.2924 15.3171 33.4337C15.3171 36.575 17.1822 39.1215 19.4829 39.1215Z" fill="#595751"/>
<path d="M19.4829 36.078C20.5525 36.078 21.4196 34.8941 21.4196 33.4338C21.4196 31.9734 20.5525 30.7896 19.4829 30.7896C18.4133 30.7896 17.5462 31.9734 17.5462 33.4338C17.5462 34.8941 18.4133 36.078 19.4829 36.078Z" fill="#E8E4D8"/>
<path d="M18.241 24.4077H16.0981C15.0493 24.4077 14.1992 23.5575 14.1992 22.5088C14.1992 21.46 15.0494 20.6099 16.0981 20.6099H18.241C19.2898 20.6099 20.1399 21.4601 20.1399 22.5088C20.1399 23.5575 19.2898 24.4077 18.241 24.4077Z" fill="#FFAF40"/>
<path d="M32.2206 28.8834L31.4009 27.8637C31.2375 27.6604 31.0306 27.4964 30.7953 27.3836C30.5601 27.2709 30.3026 27.2124 30.0418 27.2124H26.8908C25.9278 27.2124 25.147 27.9931 25.147 28.9562C25.147 29.9192 25.9277 30.6999 26.8908 30.6999H31.3501C32.2878 30.6999 32.8081 29.6142 32.2206 28.8834ZM42.1971 28.8834L43.0167 27.8637C43.1801 27.6604 43.3871 27.4963 43.6223 27.3836C43.8575 27.2709 44.115 27.2124 44.3758 27.2124H46.5893C47.5523 27.2124 48.3331 27.9931 48.3331 28.9562C48.3331 29.9192 47.5524 30.6999 46.5893 30.6999H43.0675C42.1298 30.6999 41.6095 29.6142 42.1971 28.8834Z" fill="#FFF7C7"/>
<path d="M43.8925 35.9239H31.413L31.9645 34.0052C32.0707 33.6359 32.2941 33.3112 32.601 33.08C32.9079 32.8489 33.2817 32.7239 33.666 32.7239H41.6396C42.429 32.7239 43.123 33.2465 43.3411 34.0052L43.8925 35.9239Z" fill="#E8E4D8"/>
<path d="M46.2792 34.7192C46.8631 34.7192 47.3365 34.1631 47.3365 33.4771C47.3365 32.791 46.8631 32.2349 46.2792 32.2349C45.6953 32.2349 45.2219 32.791 45.2219 33.4771C45.2219 34.1631 45.6953 34.7192 46.2792 34.7192Z" fill="#FFF7C7"/>
<path d="M28.7651 34.7192C29.4222 34.7192 29.9549 34.1631 29.9549 33.4771C29.9549 32.791 29.4222 32.2349 28.7651 32.2349C28.108 32.2349 27.5753 32.791 27.5753 33.4771C27.5753 34.1631 28.108 34.7192 28.7651 34.7192Z" fill="#FFF7C7"/>
<path d="M35.6266 27.2124H24.5868C23.6808 27.2124 22.9462 26.4779 22.9462 25.5718C22.9462 24.6657 23.6808 23.9312 24.5868 23.9312H35.6266C36.5327 23.9312 37.2672 24.6657 37.2672 25.5718C37.2672 26.4779 36.5327 27.2124 35.6266 27.2124Z" fill="#FFE059"/>
<path d="M29.3575 23.9312H27.3575C26.4514 23.9312 25.7168 24.6657 25.7168 25.5718C25.7168 26.4779 26.4514 27.2124 27.3575 27.2124H29.3575C30.2636 27.2124 30.9981 26.4779 30.9981 25.5718C30.9982 24.6657 30.2637 23.9312 29.3575 23.9312Z" fill="#FFF370"/>
<path d="M43.8927 35.9242H38.7283C39.7336 35.1247 40.476 34.0071 40.8039 32.7241H41.6399C42.0241 32.7242 42.3978 32.8491 42.7047 33.0802C43.0117 33.3113 43.2351 33.6359 43.3414 34.0051L43.8927 35.9242Z" fill="#D8D4C9"/>
<g clip-path="url(#clip1_188_5771)">
<path d="M2.38008 41.0001H23.5267C24.1336 41.0001 24.6257 40.508 24.6257 39.9011V18.7545C24.6257 18.1475 24.1336 17.6555 23.5267 17.6555H2.38008C1.77315 17.6555 1.28111 18.1476 1.28111 18.7545V39.9011C1.28111 40.508 1.77315 41.0001 2.38008 41.0001Z" fill="url(#paint0_linear_188_5771)"/>
<path d="M1.2811 39.9011V18.7545C1.2811 18.1476 1.77315 17.6555 2.38008 17.6555H21.69C22.2969 17.6555 22.7889 18.1476 22.7889 18.7545V39.9011C22.7889 40.508 22.2969 41.0001 21.69 41.0001H2.38008C1.77315 41.0001 1.2811 40.508 1.2811 39.9011Z" fill="url(#paint1_linear_188_5771)"/>
<path d="M1.28675 18.6419C1.29772 18.5334 1.32492 18.427 1.36744 18.3265C1.53428 17.932 1.92487 17.6553 2.38008 17.6553H23.5267C23.9819 17.6553 24.3725 17.932 24.5393 18.3265C24.5819 18.427 24.6091 18.5334 24.62 18.6419C24.6238 18.6789 24.6257 18.7164 24.6257 18.7543V21.5148L5.14055 40.9999H2.38008C1.88691 40.9999 1.46965 40.6751 1.33048 40.2277C1.29771 40.1218 1.28105 40.0117 1.28104 39.9009V18.7543C1.28107 18.7168 1.28298 18.6793 1.28675 18.6419Z" fill="url(#paint2_linear_188_5771)"/>
<path d="M2.38008 17.6555H12.9534V41.0001H2.38008C1.77309 41.0001 1.2811 40.508 1.2811 39.9011V18.7545C1.2811 18.1475 1.77315 17.6555 2.38008 17.6555Z" fill="url(#paint3_linear_188_5771)"/>
<path d="M3.78344 36.8635C3.90954 36.655 4.0873 36.4826 4.29953 36.3629C4.51176 36.2433 4.75128 36.1804 4.99492 36.1804H20.9118C21.1555 36.1804 21.395 36.2433 21.6072 36.3629C21.8195 36.4826 21.9972 36.655 22.1233 36.8635L24.3797 40.5935C24.1782 40.8415 23.8711 41.0001 23.5267 41.0001H2.38008C2.03567 41.0001 1.72854 40.8414 1.52706 40.5935L3.78344 36.8635Z" fill="url(#paint4_linear_188_5771)"/>
<path d="M1.28091 18.7543V39.0598L15.7538 24.5869C15.9028 24.438 16.0211 24.2611 16.1017 24.0664C16.1823 23.8718 16.2238 23.6631 16.2237 23.4524V17.6553H2.37996C1.77328 17.6553 1.28091 18.1476 1.28091 18.7543Z" fill="url(#paint5_linear_188_5771)"/>
<path d="M15.4075 24.5865L15.0974 24.2763C15.0746 24.2535 15.0476 24.2354 15.0179 24.2231C14.9881 24.2108 14.9562 24.2044 14.9241 24.2044C14.8919 24.2044 14.86 24.2108 14.8302 24.2231C14.8005 24.2354 14.7735 24.2535 14.7507 24.2763L14.4406 24.5865C14.4178 24.6092 14.3908 24.6273 14.361 24.6396C14.3313 24.6519 14.2994 24.6583 14.2672 24.6583C14.235 24.6583 14.2032 24.6519 14.1734 24.6396C14.1437 24.6273 14.1167 24.6092 14.0939 24.5865L13.7837 24.2763C13.7609 24.2535 13.7339 24.2354 13.7042 24.2231C13.6744 24.2108 13.6426 24.2044 13.6104 24.2044C13.5782 24.2044 13.5463 24.2108 13.5165 24.2231C13.4868 24.2354 13.4598 24.2535 13.437 24.2763L13.1268 24.5865C13.1041 24.6092 13.077 24.6273 13.0473 24.6396C13.0176 24.6519 12.9857 24.6583 12.9535 24.6583C12.9213 24.6583 12.8894 24.6519 12.8597 24.6396C12.8299 24.6273 12.8029 24.6092 12.7801 24.5865L12.47 24.2763C12.4472 24.2535 12.4202 24.2354 12.3905 24.2231C12.3607 24.2108 12.3289 24.2044 12.2967 24.2044C12.2645 24.2044 12.2326 24.2108 12.2029 24.2231C12.1731 24.2354 12.1461 24.2535 12.1233 24.2763L11.8132 24.5865C11.7904 24.6092 11.7634 24.6273 11.7337 24.6396C11.7039 24.6519 11.672 24.6583 11.6398 24.6583C11.6077 24.6583 11.5758 24.6519 11.546 24.6396C11.5163 24.6273 11.4893 24.6092 11.4665 24.5865L11.1564 24.2763C11.1336 24.2535 11.1066 24.2354 11.0768 24.2231C11.0471 24.2108 11.0152 24.2044 10.983 24.2044C10.9508 24.2044 10.919 24.2108 10.8892 24.2231C10.8595 24.2354 10.8325 24.2535 10.8097 24.2763L10.4996 24.5865C10.4768 24.6092 10.4498 24.6273 10.42 24.6396C10.3903 24.6519 10.3584 24.6583 10.3262 24.6583C10.294 24.6583 10.2621 24.6519 10.2324 24.6396C10.2027 24.6273 10.1756 24.6092 10.1529 24.5865C10.0039 24.4375 9.8858 24.2607 9.80519 24.0661C9.72459 23.8715 9.68311 23.663 9.68311 23.4524V17.6553H16.2243V23.4524C16.2243 23.8777 16.0553 24.2857 15.7545 24.5865C15.7085 24.6325 15.6461 24.6583 15.581 24.6583C15.516 24.6583 15.4536 24.6325 15.4075 24.5865Z" fill="url(#paint6_linear_188_5771)"/>
<path d="M1.23335 21.5147H24.6734C24.76 21.5147 24.8431 21.4803 24.9044 21.4191C24.9656 21.3578 25 21.2747 25 21.1881V17.3286C25 17.2857 24.9916 17.2432 24.9752 17.2036C24.9588 17.164 24.9347 17.128 24.9044 17.0976C24.874 17.0673 24.838 17.0432 24.7984 17.0268C24.7588 17.0104 24.7163 17.002 24.6734 17.002H1.23342C1.14679 17.002 1.0637 17.0364 1.00244 17.0976C0.941181 17.1589 0.906767 17.242 0.906767 17.3286V21.1881C0.906767 21.2747 0.941175 21.3578 1.00242 21.4191C1.06367 21.4803 1.14674 21.5147 1.23335 21.5147Z" fill="url(#paint7_linear_188_5771)"/>
<path d="M16.224 17.0022H9.6828V21.515H16.224V17.0022Z" fill="url(#paint8_linear_188_5771)"/>
<path d="M16.1616 32.6774H21.3545C21.4435 32.6774 21.5288 32.6421 21.5917 32.5792C21.6546 32.5163 21.69 32.431 21.69 32.342V31.6506C21.69 31.5617 21.6546 31.4763 21.5917 31.4134C21.5288 31.3505 21.4435 31.3152 21.3545 31.3152H16.1616C16.0726 31.3152 15.9873 31.3505 15.9244 31.4134C15.8615 31.4763 15.8262 31.5617 15.8262 31.6506V32.342C15.8262 32.431 15.8615 32.5163 15.9244 32.5792C15.9873 32.6421 16.0727 32.6774 16.1616 32.6774ZM18.0612 34.826H21.3545C21.4435 34.826 21.5288 34.7907 21.5917 34.7278C21.6546 34.6649 21.69 34.5796 21.69 34.4906V33.7992C21.69 33.7102 21.6546 33.6249 21.5917 33.562C21.5288 33.4991 21.4435 33.4638 21.3545 33.4638H18.0612C17.9722 33.4638 17.8869 33.4991 17.824 33.562C17.7611 33.6249 17.7257 33.7102 17.7257 33.7992V34.4906C17.7257 34.5796 17.7611 34.6649 17.824 34.7278C17.8869 34.7907 17.9722 34.826 18.0612 34.826ZM13.2888 34.826H16.2256C16.3146 34.826 16.3999 34.7907 16.4628 34.7278C16.5257 34.6649 16.561 34.5796 16.561 34.4906V33.7992C16.561 33.7102 16.5257 33.6249 16.4628 33.562C16.3999 33.4991 16.3146 33.4638 16.2256 33.4638H13.2888C13.1999 33.4638 13.1145 33.4991 13.0516 33.562C12.9887 33.6249 12.9534 33.7102 12.9534 33.7992V34.4906C12.9534 34.5796 12.9887 34.6649 13.0516 34.7278C13.1145 34.7907 13.1999 34.826 13.2888 34.826Z" fill="#FF7044"/>
<path d="M16.38 17.6553H23.4977C23.3919 19.8212 22.4515 21.7677 20.9908 23.1799L15.2809 28.8898V18.7543C15.2809 18.1476 15.7733 17.6553 16.38 17.6553Z" fill="url(#paint9_linear_188_5771)"/>
<path d="M7.00001 17.2541C7.00001 12.6955 10.6955 9 15.2541 9C19.7929 9 23.4622 12.6309 23.5077 17.1694C23.5421 20.5972 21.4866 23.5486 18.5375 24.8286C18.0441 25.0431 17.6217 25.3933 17.3194 25.8384L15.8426 28.0111C15.5602 28.4265 14.9479 28.4265 14.6655 28.0111L13.1887 25.8385C12.8872 25.3949 12.4672 25.0439 11.9752 24.8307C9.048 23.5622 7.00001 20.6476 7.00001 17.2541Z" fill="url(#paint10_linear_188_5771)"/>
<path d="M15.2541 27.9113C15.3019 27.9113 15.4218 27.8985 15.5025 27.7799L16.9794 25.6072C17.3252 25.0975 17.8088 24.6966 18.3738 24.4514C21.2745 23.1923 23.1283 20.3356 23.0965 17.1736C23.0756 15.0877 22.2517 13.135 20.7766 11.6752C19.3016 10.2154 17.3402 9.41138 15.2541 9.41138C10.9296 9.41138 7.4113 12.9297 7.4113 17.2542C7.4113 20.383 9.26692 23.2089 12.1388 24.4533C12.7005 24.6968 13.1812 25.0958 13.5289 25.6073L15.0057 27.7799C15.0864 27.8985 15.2063 27.9113 15.2541 27.9113Z" fill="url(#paint11_linear_188_5771)"/>
<path d="M15.2541 22.4426C12.3886 22.4426 10.0657 20.1196 10.0657 17.2541C10.0657 14.3886 12.3886 12.0657 15.2541 12.0657C18.1196 12.0657 20.4426 14.3886 20.4426 17.2541C20.4426 20.1196 18.1196 22.4426 15.2541 22.4426Z" fill="url(#paint12_linear_188_5771)"/>
<path d="M7.25826 19.309L12.1877 14.3796C12.9546 13.5618 14.0446 13.0508 15.2541 13.0508C17.5755 13.0508 19.4574 14.9326 19.4574 17.254C19.4574 18.4636 18.9463 19.5536 18.1285 20.3204L12.9334 25.5155C12.6659 25.2222 12.3393 24.9888 11.9752 24.8306C9.66008 23.8273 7.89519 21.7942 7.25826 19.309Z" fill="url(#paint13_linear_188_5771)"/>
<path d="M15.2541 21.4572C12.9327 21.4572 11.0509 19.5754 11.0509 17.254C11.0509 14.9326 12.9327 13.0508 15.2541 13.0508C17.5755 13.0508 19.4574 14.9326 19.4574 17.254C19.4574 19.5754 17.5755 21.4572 15.2541 21.4572Z" fill="url(#paint14_linear_188_5771)"/>
</g>
</g>
<defs>
<linearGradient id="paint0_linear_188_5771" x1="24.6257" y1="17.6555" x2="1.28111" y2="17.6555" gradientUnits="userSpaceOnUse">
<stop stop-color="#FFDAAA"/>
<stop offset="1" stop-color="#FCB37E"/>
</linearGradient>
<linearGradient id="paint1_linear_188_5771" x1="14.5989" y1="27.9339" x2="24.8577" y2="22.3562" gradientUnits="userSpaceOnUse">
<stop stop-color="#FFDAAA" stop-opacity="0"/>
<stop offset="1" stop-color="#E9EDF5"/>
</linearGradient>
<linearGradient id="paint2_linear_188_5771" x1="24.6257" y1="17.6553" x2="1.28104" y2="17.6553" gradientUnits="userSpaceOnUse">
<stop stop-color="#FCB37E" stop-opacity="0"/>
<stop offset="1" stop-color="#FF7044"/>
</linearGradient>
<linearGradient id="paint3_linear_188_5771" x1="12.9534" y1="17.6555" x2="1.2811" y2="17.6555" gradientUnits="userSpaceOnUse">
<stop stop-color="#FCB37E" stop-opacity="0"/>
<stop offset="1" stop-color="#FF7044"/>
</linearGradient>
<linearGradient id="paint4_linear_188_5771" x1="24.3797" y1="36.1804" x2="1.52706" y2="36.1804" gradientUnits="userSpaceOnUse">
<stop stop-color="#FFDAAA"/>
<stop offset="1" stop-color="#FCB37E"/>
</linearGradient>
<linearGradient id="paint5_linear_188_5771" x1="16.2237" y1="17.6553" x2="1.28091" y2="17.6553" gradientUnits="userSpaceOnUse">
<stop stop-color="#FCB37E" stop-opacity="0"/>
<stop offset="1" stop-color="#FF7044"/>
</linearGradient>
<linearGradient id="paint6_linear_188_5771" x1="16.2243" y1="17.6553" x2="9.68311" y2="17.6553" gradientUnits="userSpaceOnUse">
<stop stop-color="#FFDA45"/>
<stop offset="1" stop-color="#FCB37E"/>
</linearGradient>
<linearGradient id="paint7_linear_188_5771" x1="25" y1="17.002" x2="0.906767" y2="17.002" gradientUnits="userSpaceOnUse">
<stop stop-color="#FFDAAA"/>
<stop offset="1" stop-color="#FCB37E"/>
</linearGradient>
<linearGradient id="paint8_linear_188_5771" x1="16.224" y1="17.0022" x2="9.6828" y2="17.0022" gradientUnits="userSpaceOnUse">
<stop stop-color="#FFDA45"/>
<stop offset="1" stop-color="#FCB37E"/>
</linearGradient>
<linearGradient id="paint9_linear_188_5771" x1="23.4977" y1="17.6553" x2="15.2809" y2="17.6553" gradientUnits="userSpaceOnUse">
<stop stop-color="#FCB37E" stop-opacity="0"/>
<stop offset="1" stop-color="#FF7044"/>
</linearGradient>
<linearGradient id="paint10_linear_188_5771" x1="23.5082" y1="9" x2="7.00001" y2="9" gradientUnits="userSpaceOnUse">
<stop stop-color="#FF7044"/>
<stop offset="1" stop-color="#F92814"/>
</linearGradient>
<linearGradient id="paint11_linear_188_5771" x1="17.0242" y1="15.4886" x2="22.8117" y2="9.70113" gradientUnits="userSpaceOnUse">
<stop stop-color="#FF7044" stop-opacity="0"/>
<stop offset="1" stop-color="#FFA425"/>
</linearGradient>
<linearGradient id="paint12_linear_188_5771" x1="12.1255" y1="20.3827" x2="22.4738" y2="10.0345" gradientUnits="userSpaceOnUse">
<stop stop-color="#FF7044"/>
<stop offset="1" stop-color="#F92814"/>
</linearGradient>
<linearGradient id="paint13_linear_188_5771" x1="9.85628" y1="22.6518" x2="14.4427" y2="18.0654" gradientUnits="userSpaceOnUse">
<stop stop-color="#F92814" stop-opacity="0"/>
<stop offset="1" stop-color="#C1272D"/>
</linearGradient>
<linearGradient id="paint14_linear_188_5771" x1="16.2831" y1="15.6848" x2="13.7993" y2="19.4726" gradientUnits="userSpaceOnUse">
<stop stop-color="#F9F7FC"/>
<stop offset="1" stop-color="#F0DDFC"/>
</linearGradient>
<clipPath id="clip0_188_5771">
<rect width="48" height="48" fill="white" transform="translate(0.333351)"/>
</clipPath>
<clipPath id="clip1_188_5771">
<rect width="32" height="32" fill="white" transform="matrix(-1 0 0 1 25 9)"/>
</clipPath>
</defs>
</svg>
