<svg width="22" height="22" viewBox="0 0 22 22" fill="none" xmlns="http://www.w3.org/2000/svg">
<g clip-path="url(#clip0_73_7392)">
<path d="M6.41667 5.50016V2.75016C6.41667 2.50705 6.51324 2.27389 6.68515 2.10198C6.85706 1.93007 7.09022 1.8335 7.33333 1.8335H18.3333C18.5764 1.8335 18.8096 1.93007 18.9815 2.10198C19.1534 2.27389 19.25 2.50705 19.25 2.75016V15.5835C19.25 15.8266 19.1534 16.0598 18.9815 16.2317C18.8096 16.4036 18.5764 16.5002 18.3333 16.5002H15.5833V19.2502C15.5833 19.7562 15.1708 20.1668 14.6603 20.1668H3.67308C3.5522 20.1676 3.43236 20.1444 3.32046 20.0987C3.20856 20.0529 3.1068 19.9855 3.02102 19.9004C2.93524 19.8152 2.86714 19.7139 2.82063 19.6023C2.77412 19.4907 2.75012 19.371 2.75 19.2502L2.75275 6.41683C2.75275 5.91083 3.16525 5.50016 3.67583 5.50016H6.41667ZM4.58608 7.3335L4.58333 18.3335H13.75V7.3335H4.58608ZM8.25 5.50016H15.5833V14.6668H17.4167V3.66683H8.25V5.50016Z" fill="#F26850"/>
</g>
<defs>
<clipPath id="clip0_73_7392">
<rect width="22" height="22" fill="white"/>
</clipPath>
</defs>
</svg>
