<svg width="48" height="48" viewBox="0 0 48 48" fill="none" xmlns="http://www.w3.org/2000/svg">
<g clip-path="url(#clip0_188_5720)">
<path d="M37.9525 24.4077H35.8095C34.7607 24.4077 33.9106 23.5575 33.9106 22.5088C33.9106 21.46 34.7608 20.6099 35.8095 20.6099H37.9525C39.0012 20.6099 39.8514 21.4601 39.8514 22.5088C39.8514 23.5575 39.0012 24.4077 37.9525 24.4077Z" fill="#FFAF40"/>
<path d="M38.6633 27.7458H42.4497C44.7504 27.7458 46.6155 30.2924 46.6155 33.4337C46.6155 36.5749 44.7504 39.1215 42.4497 39.1215H38.7966L38.6633 27.7458Z" fill="#44433F"/>
<path d="M38.7966 39.1215C41.0973 39.1215 42.9624 36.575 42.9624 33.4337C42.9624 30.2924 41.0973 27.7458 38.7966 27.7458C36.4959 27.7458 34.6308 30.2924 34.6308 33.4337C34.6308 36.575 36.4959 39.1215 38.7966 39.1215Z" fill="#595751"/>
<path d="M19.0164 27.7458H22.8027C25.1035 27.7458 26.9685 30.2924 26.9685 33.4337C26.9685 36.5749 25.1035 39.1215 22.8027 39.1215H19.1496L19.0164 27.7458Z" fill="#44433F"/>
<path d="M38.0628 22.4388L33.4557 16.6457C32.7033 15.6996 31.7472 14.9355 30.6584 14.4103C29.5697 13.8851 28.3765 13.6123 27.1677 13.6123H12.317C11.301 13.6123 10.4774 14.4359 10.4774 15.4519V34.0843C10.4774 35.1003 11.301 35.9239 12.317 35.9239H46.6201C47.3821 35.9239 47.9997 35.3061 47.9997 34.5442V30.9498C47.9997 28.3062 46.449 25.9085 44.0381 24.8241L38.0628 22.4388Z" fill="#FFC751"/>
<path d="M48 30.9498V34.5448C48 35.3059 47.3816 35.9242 46.6206 35.9242H32.1641C37.5009 34.0898 41.7731 29.9701 43.8133 24.7349L44.0379 24.8245C46.4492 25.9084 48 28.3061 48 30.9498Z" fill="#FFAF40"/>
<path d="M28.093 27.2124H45.1997V30.6999H28.093V27.2124Z" fill="#595751"/>
<path d="M45.1997 27.2122V30.6998H37.1572C38.5573 30.0656 39.5932 28.7708 39.8689 27.2122H45.1997Z" fill="#44433F"/>
<path d="M22.1949 23.0723L18.3593 16.9855C17.9733 16.3731 18.4134 15.5754 19.1374 15.5754H31.717C31.9938 15.5754 32.267 15.6379 32.5163 15.7581C32.7656 15.8784 32.9845 16.0533 33.1568 16.2699L38.0627 22.4388C38.5419 23.0414 38.1129 23.9311 37.3428 23.9311H23.7512C23.4404 23.931 23.1346 23.8522 22.8624 23.7021C22.5903 23.5519 22.3606 23.3352 22.1949 23.0723Z" fill="#B6F0FF"/>
<path d="M27.2906 15.5757H20.8598C19.9537 15.5757 19.2191 16.3102 19.2191 17.2163C19.2191 18.1224 19.9537 18.8569 20.8598 18.8569H27.2906C28.1967 18.8569 28.9313 18.1224 28.9313 17.2163C28.9313 16.3102 28.1967 15.5757 27.2906 15.5757Z" fill="#DCFEFF"/>
<path d="M25.1703 15.5757H24.788C23.8819 15.5757 23.1474 16.3102 23.1474 17.2163C23.1474 18.1224 23.8819 18.8569 24.788 18.8569H25.1703C26.0764 18.8569 26.8109 18.1224 26.8109 17.2163C26.8109 16.3102 26.0764 15.5757 25.1703 15.5757Z" fill="white"/>
<path d="M37.3434 23.9313H31.5684C32.3857 22.8522 32.8702 21.5082 32.8702 20.0499C32.8702 18.311 32.1809 16.7337 31.0614 15.5757H31.7171C32.2774 15.5757 32.8081 15.8307 33.1567 16.2698L38.0631 22.4386C38.5416 23.0413 38.1133 23.9313 37.3434 23.9313Z" fill="#73E1FF"/>
<path d="M18.7053 23.226L14.0195 15.7901C13.978 15.7244 13.9206 15.6702 13.8526 15.6327C13.7846 15.5951 13.7081 15.5754 13.6304 15.5754H11.462V23.9311H18.3161C18.6782 23.931 18.8983 23.5322 18.7053 23.226Z" fill="#A0DAF2"/>
<path d="M19.1496 39.1215C21.4503 39.1215 23.3154 36.575 23.3154 33.4337C23.3154 30.2924 21.4503 27.7458 19.1496 27.7458C16.8489 27.7458 14.9838 30.2924 14.9838 33.4337C14.9838 36.575 16.8489 39.1215 19.1496 39.1215Z" fill="#595751"/>
<path d="M19.1496 36.078C20.2192 36.078 21.0862 34.8941 21.0862 33.4338C21.0862 31.9734 20.2192 30.7896 19.1496 30.7896C18.08 30.7896 17.2129 31.9734 17.2129 33.4338C17.2129 34.8941 18.08 36.078 19.1496 36.078Z" fill="#E8E4D8"/>
<path d="M17.9077 24.4077H15.7647C14.7159 24.4077 13.8658 23.5575 13.8658 22.5088C13.8658 21.46 14.716 20.6099 15.7647 20.6099H17.9077C18.9564 20.6099 19.8066 21.4601 19.8066 22.5088C19.8066 23.5575 18.9564 24.4077 17.9077 24.4077Z" fill="#FFAF40"/>
<path d="M31.8872 28.8834L31.0676 27.8637C30.9041 27.6604 30.6972 27.4964 30.462 27.3836C30.2268 27.2709 29.9693 27.2124 29.7085 27.2124H26.5574C25.5944 27.2124 24.8137 27.9931 24.8137 28.9562C24.8137 29.9192 25.5943 30.6999 26.5574 30.6999H31.0167C31.9544 30.6999 32.4747 29.6142 31.8872 28.8834ZM41.8637 28.8834L42.6834 27.8637C42.8468 27.6604 43.0537 27.4963 43.2889 27.3836C43.5241 27.2709 43.7816 27.2124 44.0425 27.2124H46.256C47.219 27.2124 47.9997 27.9931 47.9997 28.9562C47.9997 29.9192 47.2191 30.6999 46.256 30.6999H42.7342C41.7965 30.6999 41.2762 29.6142 41.8637 28.8834Z" fill="#FFF7C7"/>
<path d="M43.5592 35.9239H31.0796L31.6312 34.0052C31.7373 33.6359 31.9607 33.3112 32.2677 33.08C32.5746 32.8489 32.9484 32.7239 33.3326 32.7239H41.3063C42.0956 32.7239 42.7897 33.2465 43.0077 34.0052L43.5592 35.9239Z" fill="#E8E4D8"/>
<path d="M45.9459 34.7192C46.5298 34.7192 47.0032 34.1631 47.0032 33.4771C47.0032 32.791 46.5298 32.2349 45.9459 32.2349C45.3619 32.2349 44.8885 32.791 44.8885 33.4771C44.8885 34.1631 45.3619 34.7192 45.9459 34.7192Z" fill="#FFF7C7"/>
<path d="M28.4318 34.7192C29.0889 34.7192 29.6215 34.1631 29.6215 33.4771C29.6215 32.791 29.0889 32.2349 28.4318 32.2349C27.7747 32.2349 27.242 32.791 27.242 33.4771C27.242 34.1631 27.7747 34.7192 28.4318 34.7192Z" fill="#FFF7C7"/>
<path d="M35.2932 27.2124H24.2535C23.3474 27.2124 22.6129 26.4779 22.6129 25.5718C22.6129 24.6657 23.3474 23.9312 24.2535 23.9312H35.2932C36.1993 23.9312 36.9339 24.6657 36.9339 25.5718C36.9339 26.4779 36.1993 27.2124 35.2932 27.2124Z" fill="#FFE059"/>
<path d="M29.0242 23.9312H27.0241C26.118 23.9312 25.3835 24.6657 25.3835 25.5718C25.3835 26.4779 26.118 27.2124 27.0241 27.2124H29.0242C29.9303 27.2124 30.6648 26.4779 30.6648 25.5718C30.6649 24.6657 29.9304 23.9312 29.0242 23.9312Z" fill="#FFF370"/>
<path d="M43.5593 35.9242H38.3949C39.4002 35.1247 40.1426 34.0071 40.4706 32.7241H41.3065C41.6907 32.7242 42.0645 32.8491 42.3714 33.0802C42.6783 33.3113 42.9018 33.6359 43.008 34.0051L43.5593 35.9242Z" fill="#D8D4C9"/>
<g clip-path="url(#clip1_188_5720)">
<path d="M22.2401 26.5349C19.0078 28.1334 15.0837 26.801 13.4884 23.5749C11.8899 20.3425 13.2223 16.4185 16.4484 14.8231C19.6807 13.2246 23.6048 14.5571 25.2002 17.7831C26.8049 21.0124 25.4725 24.9365 22.2401 26.5349ZM17.2243 16.3922C14.8581 17.5624 13.8841 20.4421 15.0543 22.8083C16.2244 25.1745 19.1042 26.1485 21.4704 24.9784C23.8366 23.8082 24.8106 20.9285 23.6404 18.5623C22.4672 16.1898 19.5906 15.2221 17.2243 16.3922Z" fill="url(#paint0_linear_188_5720)"/>
<path d="M9.53898 42.9786C9.48304 42.8813 9.51491 42.7562 9.61533 42.7065C9.91032 42.5606 10.1212 42.3079 10.2133 42.0202C10.3117 41.7294 10.3006 41.4069 10.1547 41.1119C10.0088 40.8169 9.99768 40.4943 10.096 40.2035C10.1944 39.9127 10.399 39.6631 10.694 39.5172C10.989 39.3713 11.1999 39.1186 11.292 38.8309C11.3903 38.5401 11.3792 38.2176 11.2334 37.9226C11.0875 37.6276 11.0733 37.2987 11.1747 37.0142C11.2731 36.7234 11.4777 36.4738 11.7727 36.3279C12.0677 36.182 12.2786 35.9293 12.3707 35.6416C12.469 35.3509 12.4579 35.0283 12.312 34.7333L12.3089 34.727C12.1786 34.4634 12.2551 34.1443 12.4907 33.9731L13.383 33.2975C13.4867 33.2228 13.5592 33.1167 13.6004 32.9948L14.6696 29.8336L8.90072 27.8825L7.83156 31.0436C7.79031 31.1656 7.78976 31.2908 7.82052 31.4162L8.11953 32.4947C8.19658 32.7769 8.06374 33.0769 7.80013 33.2073C7.50514 33.3531 7.29423 33.6059 7.20215 33.8935C7.1038 34.1843 7.11491 34.5069 7.26079 34.8019C7.40667 35.0969 7.42088 35.4258 7.31943 35.7103C7.22108 36.0011 7.01644 36.2507 6.72145 36.3966C6.42646 36.5424 6.21554 36.7952 6.12347 37.0828C6.0314 37.3705 6.03623 37.6962 6.18211 37.9912C6.32799 38.2862 6.3422 38.615 6.24075 38.8996C6.1424 39.1903 5.93776 39.44 5.64277 39.5858C5.34778 39.7317 5.13686 39.9844 5.04479 40.2721C4.94644 40.5629 4.95755 40.8855 5.10343 41.1805C5.15309 41.2809 5.10247 41.3997 4.99894 41.4431L4.59738 41.6104C4.3464 41.7189 4.15762 41.9216 4.06569 42.178L3.75477 43.0972C3.67863 43.3224 3.69319 43.5729 3.79244 43.7894L4.76001 45.9356C5.14454 46.7921 6.17637 47.1411 7.00189 46.6938L9.07352 45.5756C9.28382 45.4638 9.44749 45.2735 9.52363 45.0484L9.83454 44.1291C9.9202 43.8759 9.8964 43.5908 9.75653 43.3553L9.53898 42.9786Z" fill="url(#paint1_linear_188_5720)"/>
<path d="M10.9957 28.5804L12.5903 29.1197L7.54916 44.0093C7.40005 44.4501 6.92304 44.686 6.48217 44.5369C6.0413 44.3878 5.80541 43.9108 5.95452 43.4699L10.9957 28.5804Z" fill="url(#paint2_linear_188_5720)"/>
<path d="M7.83474 31.0341C7.79349 31.156 7.79294 31.2813 7.82371 31.4067L8.11961 32.4789C8.19666 32.7611 8.06382 33.0611 7.80021 33.1915C7.50522 33.3374 7.2943 33.5901 7.20223 33.8778C7.10388 34.1685 7.11499 34.4911 7.26087 34.7861C7.40675 35.0811 7.42096 35.41 7.31951 35.6945C7.22116 35.9853 7.01652 36.2349 6.72153 36.3808C6.57717 36.4521 6.45778 36.5424 6.35708 36.6547L11.3568 38.3457C11.3449 38.1954 11.3048 38.0511 11.2334 37.9068C11.0876 37.6118 11.0733 37.2829 11.1748 36.9984C11.2731 36.7076 11.4778 36.458 11.7728 36.3121C12.0678 36.1663 12.2787 35.9135 12.3708 35.6259C12.4691 35.3351 12.458 35.0125 12.3121 34.7175L12.309 34.7112C12.1786 34.4476 12.2552 34.1285 12.4908 33.9573L13.3831 33.2817C13.4868 33.2071 13.5592 33.1009 13.6005 32.979L14.6697 29.8178L8.9008 27.8667L7.83474 31.0341Z" fill="url(#paint3_linear_188_5720)"/>
<path d="M4.99951 46.3092C5.47922 46.8844 6.31765 47.0634 7.00819 46.6907L9.07982 45.5725C9.29012 45.4607 9.45379 45.2704 9.52993 45.0452L9.84084 44.126C9.9265 43.8727 9.9027 43.5877 9.76283 43.3522L9.54528 42.9755C9.48935 42.8781 9.52121 42.753 9.62163 42.7034C9.91662 42.5575 10.1275 42.3048 10.2196 42.0171C10.318 41.7263 10.3069 41.4037 10.161 41.1087C10.0151 40.8137 10.004 40.4911 10.1023 40.2004C10.2007 39.9096 10.4053 39.66 10.7003 39.5141C10.9953 39.3682 11.2062 39.1155 11.2983 38.8278C11.3904 38.5401 11.3855 38.2144 11.2397 37.9194C11.0938 37.6244 11.0796 37.2956 11.181 37.0111C11.2794 36.7203 11.484 36.4707 11.779 36.3248C12.074 36.1789 12.2849 35.9262 12.377 35.6385C12.4753 35.3477 12.4642 35.0251 12.3183 34.7301L12.3152 34.7239C12.1849 34.4603 12.2614 34.1412 12.497 33.97L13.3893 33.2944C13.493 33.2197 13.5655 33.1136 13.6067 32.9916L14.6759 29.8305L10.9957 28.5805L4.99951 46.3092Z" fill="url(#paint4_linear_188_5720)"/>
<path d="M9.83456 44.1289L9.52365 45.0482C9.44751 45.2733 9.28384 45.4636 9.07354 45.5754L7.00191 46.6936C6.17639 47.1409 5.14456 46.7919 4.76003 45.9354L3.79246 43.7892C3.69321 43.5727 3.67865 43.3222 3.75479 43.097L4.06571 42.1778C4.15137 41.9245 4.34331 41.7124 4.59741 41.6102L4.99896 41.4429C5.10249 41.3995 5.15311 41.2807 5.10345 41.1803C4.95757 40.8853 4.94336 40.5564 5.04481 40.2719C5.06067 40.225 5.08281 40.175 5.10495 40.125L10.2641 41.8699C10.2513 41.9231 10.2386 41.9763 10.2227 42.0232C10.1244 42.314 9.91972 42.5636 9.62473 42.7095C9.52431 42.7591 9.49245 42.8843 9.54838 42.9816L9.76593 43.3583C9.89015 43.5937 9.92022 43.8757 9.83456 44.1289Z" fill="url(#paint5_linear_188_5720)"/>
<path d="M19.8647 16.9612L12.595 14.5024C10.1562 13.6776 7.5138 14.9843 6.68892 17.4231L4.23016 24.6928C3.40529 27.1317 4.712 29.7741 7.14776 30.5927L14.4175 33.0514C16.8563 33.8763 19.4987 32.5696 20.3173 30.1338L22.7761 22.8641C23.604 20.4316 22.2973 17.7892 19.8647 16.9612ZM17.4139 20.2979C17.1251 20.4407 16.7806 20.4705 16.4522 20.3594L13.2442 19.2744C12.5876 19.0523 12.2337 18.3368 12.4558 17.6802C12.5669 17.3519 12.7997 17.0961 13.0884 16.9534C13.3771 16.8106 13.7217 16.7808 14.05 16.8918L17.2581 17.9769C17.9147 18.1989 18.2685 18.9144 18.0465 19.5711C17.9385 19.9056 17.7026 20.1551 17.4139 20.2979Z" fill="url(#paint6_linear_188_5720)"/>
<path d="M11.7605 21.2815L16.4131 22.8551C17.4543 23.2073 18.0099 24.3307 17.6577 25.372L16.4268 29.0115C16.0746 30.0527 14.9511 30.6083 13.9099 30.2561L9.25733 28.6825C8.21612 28.3304 7.66053 27.2069 8.01269 26.1657L9.24366 22.5261C9.59581 21.4849 10.7193 20.9293 11.7605 21.2815Z" fill="url(#paint7_linear_188_5720)"/>
<path d="M6.1433 19.0208L4.22388 24.6959C3.39901 27.1348 4.70572 29.7771 7.14459 30.602L14.4143 33.0608C16.8532 33.8856 19.4955 32.5789 20.3204 30.1401L22.2398 24.465L6.1433 19.0208Z" fill="url(#paint8_linear_188_5720)"/>
<path d="M22.7854 22.8673L20.3204 30.1401C19.4955 32.5789 16.8532 33.8857 14.4206 33.0577L8.74552 31.1383L12.835 19.0471C12.9536 19.1447 13.0847 19.2204 13.2348 19.2712L16.4429 20.3562C16.7712 20.4673 17.1158 20.4375 17.4045 20.2947C17.6932 20.1519 17.926 19.8962 18.0371 19.5679C18.2592 18.9112 17.9053 18.1957 17.2487 17.9736L14.0407 16.8886C13.8906 16.8379 13.731 16.8152 13.5869 16.824L14.1897 15.0417L19.8647 16.9612C22.2973 17.7891 23.604 20.4315 22.7854 22.8673Z" fill="url(#paint9_linear_188_5720)"/>
<path d="M16.591 15.854C15.9632 16.2114 15.4288 16.6788 15.0006 17.2186L17.2518 17.98C17.9084 18.2021 18.2623 18.9176 18.0402 19.5742C17.9291 19.9026 17.6963 20.1583 17.4076 20.3011C17.1189 20.4439 16.7743 20.4737 16.446 20.3626L13.9133 19.506C13.6576 20.6948 13.7804 21.9698 14.3577 23.1373C15.714 25.8801 19.0534 27.0095 21.7962 25.6531L21.8339 25.6345L22.773 22.8579C23.5978 20.4191 22.2911 17.7767 19.8523 16.9518L16.591 15.854Z" fill="url(#paint10_linear_188_5720)"/>
<path d="M35.5915 28.1655L16.9998 21.8775C16.3995 21.6744 15.7468 21.9972 15.5437 22.5975L13.9193 27.4002C13.7163 28.0006 14.0391 28.6533 14.6394 28.8564L33.2311 35.1444C33.8314 35.3475 34.4842 35.0247 34.6872 34.4244L36.3116 29.6217C36.5146 29.0213 36.1918 28.3686 35.5915 28.1655ZM16.7985 26.367C16.6875 26.6953 16.336 26.8691 16.0139 26.755C15.6856 26.6439 15.5118 26.2925 15.626 25.9704L16.0289 24.7791C16.1399 24.4508 16.4914 24.277 16.8134 24.3912C16.9729 24.4451 17.1008 24.5615 17.1722 24.7059C17.2436 24.8502 17.2554 25.0162 17.2045 25.182L16.7985 26.367Z" fill="url(#paint11_linear_188_5720)"/>
<path d="M19.1045 23.9378C19.1362 23.844 19.1897 23.7785 19.2776 23.735C19.3624 23.6853 19.4563 23.6857 19.5595 23.7206L21.0322 24.2187C21.2761 24.3012 21.4917 24.4055 21.6916 24.5253C21.8852 24.6483 22.0442 24.7962 22.1656 24.9627C22.2838 25.1385 22.355 25.3299 22.3822 25.5586C22.4063 25.781 22.3707 26.0408 22.2723 26.3316C22.1391 26.7255 21.9468 27.0159 21.708 27.1965C21.4692 27.3771 21.2027 27.4698 20.9271 27.4811L21.2633 29.3458C21.2725 29.3959 21.2692 29.4366 21.2533 29.4835C21.2279 29.5586 21.187 29.6179 21.121 29.674C21.055 29.73 20.9828 29.7736 20.895 29.8014C20.8103 29.8354 20.7225 29.8476 20.6254 29.8565C20.5346 29.8624 20.4438 29.8526 20.3657 29.821C20.2906 29.7956 20.2344 29.7609 20.1783 29.7105C20.1221 29.6602 20.0943 29.588 20.0821 29.5003L19.7505 27.2818L19.2815 27.1232L18.7041 28.8304C18.666 28.943 18.5812 29.0083 18.4433 29.0297C18.3117 29.0479 18.1709 29.0316 18.0333 28.9903C17.8926 28.9427 17.7802 28.8733 17.6835 28.7727C17.59 28.6783 17.5592 28.5686 17.5972 28.456L19.1045 23.9378ZM19.9988 24.9406L19.5515 26.2632L20.255 26.5012C20.452 26.5678 20.6273 26.5748 20.7716 26.5191C20.9159 26.4634 21.0355 26.3105 21.1149 26.0603C21.2006 25.807 21.2014 25.6192 21.1206 25.4873C21.0397 25.3554 20.8961 25.2546 20.6991 25.188L19.9988 24.9406ZM23.7388 27.5436L24.8081 27.9053C24.9207 27.9433 24.9861 28.0125 25.0076 28.1191C25.0353 28.2225 25.0286 28.3352 24.9905 28.4478C24.9588 28.5416 24.8989 28.6259 24.8203 28.7038C24.7385 28.7755 24.6383 28.7938 24.5194 28.7589L23.4501 28.3972L23.0408 29.6072L24.945 30.2513C25.0576 30.2894 25.1198 30.3679 25.1444 30.4807C25.169 30.5936 25.1559 30.725 25.1114 30.8564C25.0734 30.9689 25.0134 31.0689 24.9223 31.153C24.8374 31.2341 24.7339 31.2618 24.6119 31.2206L22.0918 30.3577C21.9699 30.3165 21.8668 30.2503 21.789 30.156C21.7048 30.0648 21.6865 29.9645 21.7245 29.852L23.2506 25.3401C23.2886 25.2275 23.3641 25.159 23.4863 25.1376C23.6085 25.1162 23.7275 25.1198 23.8494 25.1611L26.3727 26.0145C26.4947 26.0558 26.557 26.1343 26.5783 26.2565C26.5966 26.3725 26.5867 26.4946 26.5486 26.6071C26.5042 26.7384 26.438 26.8415 26.3468 26.9256C26.2588 27.0004 26.1616 27.025 26.0491 26.987L24.1449 26.3429L23.7388 27.5436ZM28.5079 32.5278C28.3766 32.4834 28.2704 32.4265 28.1705 32.351C28.0706 32.2754 28.0148 32.1624 27.9904 32.0182L27.4708 29.1038L26.6555 31.5145C26.6174 31.627 26.5326 31.6924 26.3947 31.7137C26.2631 31.732 26.1222 31.7157 25.9846 31.6744C25.8439 31.6268 25.7315 31.5574 25.6349 31.4568C25.5413 31.3624 25.5105 31.2527 25.5486 31.1401L27.0746 26.6282C27.1158 26.5063 27.2007 26.4409 27.3354 26.4289C27.4701 26.417 27.6078 26.427 27.7423 26.4777C27.8454 26.5126 27.9236 26.5443 27.9955 26.579C28.0673 26.6138 28.1204 26.6579 28.1702 26.7113C28.2201 26.7648 28.2604 26.8464 28.2913 26.9404C28.3222 27.0345 28.353 27.1599 28.3712 27.3072L28.7794 29.9017L29.5947 27.491C29.636 27.3691 29.7208 27.3037 29.8555 27.2918C29.9902 27.2798 30.1248 27.2992 30.2624 27.3405C30.4031 27.3881 30.5155 27.4575 30.6153 27.5487C30.7151 27.64 30.7428 27.7434 30.7016 27.8654L29.1756 32.3773C29.1375 32.4899 29.0527 32.5552 28.9148 32.5766C28.7801 32.5885 28.6486 32.5754 28.5079 32.5278ZM34.6586 28.8222C34.7806 28.8634 34.8428 28.942 34.8642 29.0642C34.8793 29.1895 34.8663 29.3053 34.8313 29.4242C34.7837 29.5649 34.7175 29.6679 34.6263 29.7521C34.5352 29.8362 34.4349 29.8546 34.3286 29.8134L33.3405 29.4896L32.0366 33.3449C31.9985 33.4575 31.9136 33.5229 31.7758 33.5442C31.6442 33.5624 31.5033 33.5461 31.3657 33.5048C31.225 33.4572 31.1126 33.3878 31.016 33.2872C30.9224 33.1929 30.8916 33.0831 30.9297 32.9706L32.2336 29.1153L31.2581 28.7853C31.1455 28.7473 31.0832 28.6687 31.0587 28.5559C31.0373 28.4336 31.0472 28.3116 31.0948 28.1709C31.1361 28.0489 31.196 27.949 31.2872 27.8648C31.3752 27.7744 31.4755 27.7561 31.5975 27.7973L34.6586 28.8222Z" fill="white"/>
<path d="M14.025 16.8887C13.5366 17.5754 13.1856 18.3505 12.9942 19.1638C12.6497 20.5996 12.7869 22.1565 13.4884 23.575C13.7956 24.1964 14.194 24.7492 14.6554 25.2241C14.9453 25.526 15.2666 25.7967 15.61 26.0331C15.9347 26.2631 16.2814 26.4588 16.6408 26.6169C16.7163 26.5483 16.7762 26.4641 16.8048 26.364L17.2077 25.1727C17.2299 25.107 17.2427 25.0382 17.243 24.9756C16.9337 24.8239 16.6307 24.6378 16.3562 24.4143C15.9567 24.0963 15.6108 23.7127 15.3185 23.2636C15.222 23.116 15.1382 22.9622 15.0606 22.8053C14.5764 21.8262 14.4621 20.7579 14.6575 19.763C14.8208 18.9245 15.2126 18.1371 15.7916 17.4914L14.0469 16.9013C14.0344 16.8919 14.0313 16.8856 14.025 16.8887Z" fill="url(#paint12_linear_188_5720)"/>
<path d="M14.025 16.8887C13.5366 17.5754 13.1856 18.3505 12.9942 19.1638C12.6497 20.5996 12.7869 22.1565 13.4884 23.575C13.7956 24.1964 14.194 24.7492 14.6554 25.2241C14.9453 25.526 15.2666 25.7967 15.61 26.0331C15.9347 26.2631 16.2814 26.4588 16.6408 26.6169C16.7163 26.5483 16.7762 26.4641 16.8048 26.364L17.2077 25.1727C17.2299 25.107 17.2427 25.0382 17.243 24.9756C16.9337 24.8239 16.6307 24.6378 16.3562 24.4143C15.9567 24.0963 15.6108 23.7127 15.3185 23.2636C15.222 23.116 15.1382 22.9622 15.0606 22.8053C14.5764 21.8262 14.4621 20.7579 14.6575 19.763C14.8208 18.9245 15.2126 18.1371 15.7916 17.4914L14.0469 16.9013C14.0344 16.8919 14.0313 16.8856 14.025 16.8887Z" fill="url(#paint13_linear_188_5720)"/>
<path d="M14.025 16.8887C13.5366 17.5754 13.1856 18.3505 12.9942 19.1638C12.6497 20.5996 12.7869 22.1565 13.4884 23.575C13.7956 24.1964 14.194 24.7492 14.6554 25.2241C14.9453 25.526 15.2666 25.7967 15.61 26.0331C15.9347 26.2631 16.2814 26.4588 16.6408 26.6169C16.7163 26.5483 16.7762 26.4641 16.8048 26.364L17.2077 25.1727C17.2299 25.107 17.2427 25.0382 17.243 24.9756C16.9337 24.8239 16.6307 24.6378 16.3562 24.4143C15.9567 24.0963 15.6108 23.7127 15.3185 23.2636C15.222 23.116 15.1382 22.9622 15.0606 22.8053C14.5764 21.8262 14.4621 20.7579 14.6575 19.763C14.8208 18.9245 15.2126 18.1371 15.7916 17.4914L14.0469 16.9013C14.0344 16.8919 14.0313 16.8856 14.025 16.8887Z" fill="url(#paint14_linear_188_5720)"/>
<path d="M16.4484 14.8231C16.0781 15.0063 15.7296 15.2177 15.4122 15.4605L17.6353 16.2124C19.9126 15.3363 22.5355 16.3279 23.6373 18.556C24.5281 20.3574 24.1776 22.4601 22.9094 23.8762L24.6729 24.4727C26.0215 22.5716 26.3114 20.0145 25.2095 17.7863C23.608 14.5477 19.6807 13.2247 16.4484 14.8231Z" fill="url(#paint15_linear_188_5720)"/>
<path d="M16.4484 14.8231C16.0781 15.0063 15.7296 15.2177 15.4122 15.4605L17.6353 16.2124C19.9126 15.3363 22.5355 16.3279 23.6373 18.556C24.5281 20.3574 24.1776 22.4601 22.9094 23.8762L24.6729 24.4727C26.0215 22.5716 26.3114 20.0145 25.2095 17.7863C23.608 14.5477 19.6807 13.2247 16.4484 14.8231Z" fill="url(#paint16_linear_188_5720)"/>
<path d="M24.082 19.9765C24.2887 21.3897 23.8566 22.822 22.9094 23.8762L24.6729 24.4727C25.7442 22.9586 26.1473 21.0252 25.7107 19.1789L24.0851 19.9828L24.082 19.9765Z" fill="url(#paint17_linear_188_5720)"/>
<path d="M16.4484 14.8231C16.0781 15.0063 15.7296 15.2177 15.4122 15.4605L17.6353 16.2124C19.1316 15.6366 20.7776 15.8693 22.039 16.7297L23.7712 15.873C21.8376 14.0953 18.9401 13.5909 16.4484 14.8231Z" fill="url(#paint18_linear_188_5720)"/>
</g>
</g>
<defs>
<linearGradient id="paint0_linear_188_5720" x1="10.5925" y1="17.719" x2="22.3043" y2="11.9272" gradientUnits="userSpaceOnUse">
<stop stop-color="#FEF0AE"/>
<stop offset="0.147" stop-color="#FDEEA9"/>
<stop offset="0.299" stop-color="#FDEB9D"/>
<stop offset="0.453" stop-color="#FDE688"/>
<stop offset="0.609" stop-color="#FCDF6B"/>
<stop offset="0.767" stop-color="#FBD646"/>
<stop offset="0.923" stop-color="#FACC18"/>
<stop offset="1" stop-color="#FAC600"/>
</linearGradient>
<linearGradient id="paint1_linear_188_5720" x1="-1.60077" y1="33.0757" x2="12.7607" y2="25.9736" gradientUnits="userSpaceOnUse">
<stop stop-color="#EAF6FF"/>
<stop offset="0.265" stop-color="#E5F3FE"/>
<stop offset="0.54" stop-color="#D9EDFE"/>
<stop offset="0.818" stop-color="#C4E3FE"/>
<stop offset="1" stop-color="#B3DAFE"/>
</linearGradient>
<linearGradient id="paint2_linear_188_5720" x1="0.807495" y1="33.6187" x2="12.0627" y2="28.0527" gradientUnits="userSpaceOnUse">
<stop stop-color="#EAF6FF"/>
<stop offset="0.265" stop-color="#E5F3FE"/>
<stop offset="0.54" stop-color="#D9EDFE"/>
<stop offset="0.818" stop-color="#C4E3FE"/>
<stop offset="1" stop-color="#B3DAFE"/>
</linearGradient>
<linearGradient id="paint3_linear_188_5720" x1="3.36499" y1="30.6042" x2="12.7608" y2="25.9578" gradientUnits="userSpaceOnUse">
<stop stop-color="#8AC9FE" stop-opacity="0"/>
<stop offset="0.129" stop-color="#89C8FD" stop-opacity="0.019"/>
<stop offset="0.263" stop-color="#88C6FB" stop-opacity="0.075"/>
<stop offset="0.399" stop-color="#87C4F8" stop-opacity="0.168"/>
<stop offset="0.536" stop-color="#85C0F4" stop-opacity="0.298"/>
<stop offset="0.675" stop-color="#83BBEF" stop-opacity="0.466"/>
<stop offset="0.815" stop-color="#7FB5E9" stop-opacity="0.672"/>
<stop offset="0.953" stop-color="#7CAEE1" stop-opacity="0.911"/>
<stop offset="1" stop-color="#7BACDF"/>
</linearGradient>
<linearGradient id="paint4_linear_188_5720" x1="-0.86673" y1="34.4468" x2="13.4561" y2="27.3638" gradientUnits="userSpaceOnUse">
<stop stop-color="#8AC9FE" stop-opacity="0"/>
<stop offset="0.129" stop-color="#89C8FD" stop-opacity="0.019"/>
<stop offset="0.263" stop-color="#88C6FB" stop-opacity="0.075"/>
<stop offset="0.399" stop-color="#87C4F8" stop-opacity="0.168"/>
<stop offset="0.536" stop-color="#85C0F4" stop-opacity="0.298"/>
<stop offset="0.675" stop-color="#83BBEF" stop-opacity="0.466"/>
<stop offset="0.815" stop-color="#7FB5E9" stop-opacity="0.672"/>
<stop offset="0.953" stop-color="#7CAEE1" stop-opacity="0.911"/>
<stop offset="1" stop-color="#7BACDF"/>
</linearGradient>
<linearGradient id="paint5_linear_188_5720" x1="2.51804" y1="41.4043" x2="8.55699" y2="38.4179" gradientUnits="userSpaceOnUse">
<stop stop-color="#8AC9FE" stop-opacity="0"/>
<stop offset="0.129" stop-color="#89C8FD" stop-opacity="0.019"/>
<stop offset="0.263" stop-color="#88C6FB" stop-opacity="0.075"/>
<stop offset="0.399" stop-color="#87C4F8" stop-opacity="0.168"/>
<stop offset="0.536" stop-color="#85C0F4" stop-opacity="0.298"/>
<stop offset="0.675" stop-color="#83BBEF" stop-opacity="0.466"/>
<stop offset="0.815" stop-color="#7FB5E9" stop-opacity="0.672"/>
<stop offset="0.953" stop-color="#7CAEE1" stop-opacity="0.911"/>
<stop offset="1" stop-color="#7BACDF"/>
</linearGradient>
<linearGradient id="paint6_linear_188_5720" x1="-0.00445557" y1="19.21" x2="18.0724" y2="10.2705" gradientUnits="userSpaceOnUse">
<stop stop-color="#465A61"/>
<stop offset="0.398" stop-color="#44565C"/>
<stop offset="0.809" stop-color="#404C50"/>
<stop offset="1" stop-color="#3E4648"/>
</linearGradient>
<linearGradient id="paint7_linear_188_5720" x1="6.0275" y1="23.4663" x2="15.1377" y2="18.9611" gradientUnits="userSpaceOnUse">
<stop stop-color="#465A61"/>
<stop offset="0.398" stop-color="#44565C"/>
<stop offset="0.809" stop-color="#404C50"/>
<stop offset="1" stop-color="#3E4648"/>
</linearGradient>
<linearGradient id="paint8_linear_188_5720" x1="1.12216" y1="21.5039" x2="16.9136" y2="13.6947" gradientUnits="userSpaceOnUse">
<stop stop-color="#444444" stop-opacity="0"/>
<stop offset="1"/>
</linearGradient>
<linearGradient id="paint9_linear_188_5720" x1="3.41934" y1="20.3679" x2="19.2061" y2="12.561" gradientUnits="userSpaceOnUse">
<stop stop-color="#444444" stop-opacity="0"/>
<stop offset="1"/>
</linearGradient>
<linearGradient id="paint10_linear_188_5720" x1="11.9025" y1="18.1726" x2="19.9991" y2="14.1687" gradientUnits="userSpaceOnUse">
<stop stop-color="#444444" stop-opacity="0"/>
<stop offset="1"/>
</linearGradient>
<linearGradient id="paint11_linear_188_5720" x1="25.9225" y1="24.6322" x2="24.2453" y2="32.6774" gradientUnits="userSpaceOnUse">
<stop stop-color="#00F2A6"/>
<stop offset="0.245" stop-color="#00EDA3"/>
<stop offset="0.499" stop-color="#01E19A"/>
<stop offset="0.757" stop-color="#04CC8C"/>
<stop offset="1" stop-color="#07B27B"/>
</linearGradient>
<linearGradient id="paint12_linear_188_5720" x1="10.937" y1="18.4158" x2="15.205" y2="16.3052" gradientUnits="userSpaceOnUse">
<stop stop-color="#FEF0AE"/>
<stop offset="0.147" stop-color="#FDEEA9"/>
<stop offset="0.299" stop-color="#FDEB9D"/>
<stop offset="0.453" stop-color="#FDE688"/>
<stop offset="0.609" stop-color="#FCDF6B"/>
<stop offset="0.767" stop-color="#FBD646"/>
<stop offset="0.923" stop-color="#FACC18"/>
<stop offset="1" stop-color="#FAC600"/>
</linearGradient>
<linearGradient id="paint13_linear_188_5720" x1="10.937" y1="18.4158" x2="15.205" y2="16.3052" gradientUnits="userSpaceOnUse">
<stop stop-color="#FE9738" stop-opacity="0"/>
<stop offset="0.121" stop-color="#FE9738" stop-opacity="0.016"/>
<stop offset="0.246" stop-color="#FE9738" stop-opacity="0.065"/>
<stop offset="0.373" stop-color="#FE9738" stop-opacity="0.147"/>
<stop offset="0.502" stop-color="#FE9738" stop-opacity="0.262"/>
<stop offset="0.632" stop-color="#FE9738" stop-opacity="0.41"/>
<stop offset="0.762" stop-color="#FE9738" stop-opacity="0.59"/>
<stop offset="0.892" stop-color="#FE9738" stop-opacity="0.8"/>
<stop offset="1" stop-color="#FE9738"/>
</linearGradient>
<linearGradient id="paint14_linear_188_5720" x1="10.937" y1="18.4158" x2="15.205" y2="16.3052" gradientUnits="userSpaceOnUse">
<stop stop-color="#FE9738" stop-opacity="0"/>
<stop offset="0.121" stop-color="#FE9738" stop-opacity="0.016"/>
<stop offset="0.246" stop-color="#FE9738" stop-opacity="0.065"/>
<stop offset="0.373" stop-color="#FE9738" stop-opacity="0.147"/>
<stop offset="0.502" stop-color="#FE9738" stop-opacity="0.262"/>
<stop offset="0.632" stop-color="#FE9738" stop-opacity="0.41"/>
<stop offset="0.762" stop-color="#FE9738" stop-opacity="0.59"/>
<stop offset="0.892" stop-color="#FE9738" stop-opacity="0.8"/>
<stop offset="1" stop-color="#FE9738"/>
</linearGradient>
<linearGradient id="paint15_linear_188_5720" x1="15.3626" y1="15.3601" x2="22.3106" y2="11.9242" gradientUnits="userSpaceOnUse">
<stop stop-color="#FEF0AE"/>
<stop offset="0.147" stop-color="#FDEEA9"/>
<stop offset="0.299" stop-color="#FDEB9D"/>
<stop offset="0.453" stop-color="#FDE688"/>
<stop offset="0.609" stop-color="#FCDF6B"/>
<stop offset="0.767" stop-color="#FBD646"/>
<stop offset="0.923" stop-color="#FACC18"/>
<stop offset="1" stop-color="#FAC600"/>
</linearGradient>
<linearGradient id="paint16_linear_188_5720" x1="15.3626" y1="15.3601" x2="22.3106" y2="11.9242" gradientUnits="userSpaceOnUse">
<stop stop-color="#FE9738" stop-opacity="0"/>
<stop offset="0.121" stop-color="#FE9738" stop-opacity="0.016"/>
<stop offset="0.246" stop-color="#FE9738" stop-opacity="0.065"/>
<stop offset="0.373" stop-color="#FE9738" stop-opacity="0.147"/>
<stop offset="0.502" stop-color="#FE9738" stop-opacity="0.262"/>
<stop offset="0.632" stop-color="#FE9738" stop-opacity="0.41"/>
<stop offset="0.762" stop-color="#FE9738" stop-opacity="0.59"/>
<stop offset="0.892" stop-color="#FE9738" stop-opacity="0.8"/>
<stop offset="1" stop-color="#FE9738"/>
</linearGradient>
<linearGradient id="paint17_linear_188_5720" x1="21.5903" y1="21.2087" x2="25.7076" y2="19.1726" gradientUnits="userSpaceOnUse">
<stop stop-color="#FE9738" stop-opacity="0"/>
<stop offset="0.121" stop-color="#FE9738" stop-opacity="0.016"/>
<stop offset="0.246" stop-color="#FE9738" stop-opacity="0.065"/>
<stop offset="0.373" stop-color="#FE9738" stop-opacity="0.147"/>
<stop offset="0.502" stop-color="#FE9738" stop-opacity="0.262"/>
<stop offset="0.632" stop-color="#FE9738" stop-opacity="0.41"/>
<stop offset="0.762" stop-color="#FE9738" stop-opacity="0.59"/>
<stop offset="0.892" stop-color="#FE9738" stop-opacity="0.8"/>
<stop offset="1" stop-color="#FE9738"/>
</linearGradient>
<linearGradient id="paint18_linear_188_5720" x1="15.3626" y1="15.3601" x2="21.9152" y2="12.1197" gradientUnits="userSpaceOnUse">
<stop stop-color="#FE9738" stop-opacity="0"/>
<stop offset="0.121" stop-color="#FE9738" stop-opacity="0.016"/>
<stop offset="0.246" stop-color="#FE9738" stop-opacity="0.065"/>
<stop offset="0.373" stop-color="#FE9738" stop-opacity="0.147"/>
<stop offset="0.502" stop-color="#FE9738" stop-opacity="0.262"/>
<stop offset="0.632" stop-color="#FE9738" stop-opacity="0.41"/>
<stop offset="0.762" stop-color="#FE9738" stop-opacity="0.59"/>
<stop offset="0.892" stop-color="#FE9738" stop-opacity="0.8"/>
<stop offset="1" stop-color="#FE9738"/>
</linearGradient>
<clipPath id="clip0_188_5720">
<rect width="48" height="48" fill="white"/>
</clipPath>
<clipPath id="clip1_188_5720">
<rect width="35.85" height="35.85" fill="white" transform="translate(-8.23572 19.656) rotate(-26.3134)"/>
</clipPath>
</defs>
</svg>
