<svg width="20" height="20" viewBox="0 0 20 20" fill="none" xmlns="http://www.w3.org/2000/svg">
<g clip-path="url(#clip0_63_4018)">
<path d="M11.3137 14.3924L7.05541 12.0699C6.64666 12.4757 6.12692 12.7513 5.56174 12.8621C4.99655 12.9729 4.41121 12.9139 3.87952 12.6925C3.34782 12.4711 2.89357 12.0973 2.57404 11.6181C2.2545 11.1389 2.08398 10.5759 2.08398 9.99993C2.08398 9.42399 2.2545 8.86093 2.57404 8.38176C2.89357 7.90258 3.34782 7.52873 3.87952 7.30735C4.41121 7.08596 4.99655 7.02694 5.56174 7.13774C6.12692 7.24853 6.64666 7.52418 7.05541 7.92993L11.3137 5.60743C11.1677 4.92221 11.2732 4.20731 11.6109 3.59347C11.9486 2.97963 12.496 2.50787 13.153 2.26446C13.81 2.02104 14.5326 2.02224 15.1888 2.26783C15.8449 2.51343 16.3907 2.987 16.7264 3.60196C17.0621 4.21692 17.1652 4.93216 17.0169 5.61689C16.8686 6.30162 16.4787 6.91009 15.9187 7.33101C15.3586 7.75194 14.6657 7.9572 13.9668 7.90926C13.2678 7.86132 12.6094 7.56338 12.1121 7.06993L7.85375 9.39243C7.93869 9.79298 7.93869 10.2069 7.85375 10.6074L12.1121 12.9299C12.6094 12.4365 13.2678 12.1385 13.9668 12.0906C14.6657 12.0427 15.3586 12.2479 15.9187 12.6688C16.4787 13.0898 16.8686 13.6982 17.0169 14.383C17.1652 15.0677 17.0621 15.7829 16.7264 16.3979C16.3907 17.0129 15.8449 17.4864 15.1888 17.732C14.5326 17.9776 13.81 17.9788 13.153 17.7354C12.496 17.492 11.9486 17.0202 11.6109 16.4064C11.2732 15.7925 11.1677 15.0776 11.3137 14.3924Z" fill="#09090B"/>
</g>
<defs>
<clipPath id="clip0_63_4018">
<rect width="20" height="20" fill="white"/>
</clipPath>
</defs>
</svg>
